<svg xmlns="http://www.w3.org/2000/svg" version="1.1" xmlns:xlink="http://www.w3.org/1999/xlink" xmlns:svgjs="http://svgjs.dev/svgjs" viewBox="0 0 800 800"><defs><linearGradient x1="50%" y1="0%" x2="50%" y2="100%" id="ffflurry-grad" gradientTransform="rotate(270)"><stop stop-color="hsl(238, 82%, 13%)" stop-opacity="1" offset="0%"></stop><stop stop-color="hsl(1.4, 100%, 67%)" stop-opacity="1" offset="45%"></stop><stop stop-color="hsl(167, 52%, 78%)" stop-opacity="1" offset="100%"></stop></linearGradient></defs><rect width="100%" height="100%" fill="hsl(238, 82%, 13%)"></rect><g fill="url(#ffflurry-grad)"><rect width="697" height="5" x="-292.5" y="368.5" rx="2.5" transform="rotate(49, 56, 371)" opacity="0.99"></rect><rect width="368" height="5" x="497" y="660.5" rx="2.5" transform="rotate(49, 681, 663)" opacity="0.59"></rect><rect width="418" height="5" x="223" y="739.5" rx="2.5" transform="rotate(49, 432, 742)" opacity="0.29"></rect><rect width="84" height="5" x="517" y="223.5" rx="2.5" transform="rotate(49, 559, 226)" opacity="0.53"></rect><rect width="218" height="5" x="351" y="448.5" rx="2.5" transform="rotate(49, 460, 451)" opacity="0.70"></rect><rect width="378" height="5" x="490" y="46.5" rx="2.5" transform="rotate(49, 679, 49)" opacity="0.98"></rect><rect width="541" height="5" x="492.5" y="662.5" rx="2.5" transform="rotate(49, 763, 665)" opacity="0.99"></rect><rect width="452" height="5" x="23" y="745.5" rx="2.5" transform="rotate(49, 249, 748)" opacity="0.90"></rect><rect width="426" height="5" x="-115" y="759.5" rx="2.5" transform="rotate(49, 98, 762)" opacity="0.83"></rect><rect width="492" height="5" x="510" y="485.5" rx="2.5" transform="rotate(49, 756, 488)" opacity="0.81"></rect><rect width="352" height="5" x="496" y="181.5" rx="2.5" transform="rotate(49, 672, 184)" opacity="0.75"></rect><rect width="289" height="5" x="-89.5" y="35.5" rx="2.5" transform="rotate(49, 55, 38)" opacity="0.67"></rect><rect width="366" height="5" x="393" y="86.5" rx="2.5" transform="rotate(49, 576, 89)" opacity="0.76"></rect><rect width="193" height="5" x="0.5" y="130.5" rx="2.5" transform="rotate(49, 97, 133)" opacity="0.98"></rect><rect width="161" height="5" x="450.5" y="338.5" rx="2.5" transform="rotate(49, 531, 341)" opacity="0.10"></rect><rect width="239" height="5" x="511.5" y="384.5" rx="2.5" transform="rotate(49, 631, 387)" opacity="0.79"></rect><rect width="408" height="5" x="16" y="243.5" rx="2.5" transform="rotate(49, 220, 246)" opacity="0.17"></rect><rect width="352" height="5" x="402" y="408.5" rx="2.5" transform="rotate(49, 578, 411)" opacity="0.42"></rect><rect width="441" height="5" x="-35.5" y="502.5" rx="2.5" transform="rotate(49, 185, 505)" opacity="0.35"></rect><rect width="217" height="5" x="233.5" y="316.5" rx="2.5" transform="rotate(49, 342, 319)" opacity="0.13"></rect><rect width="638" height="5" x="196" y="723.5" rx="2.5" transform="rotate(49, 515, 726)" opacity="0.98"></rect><rect width="257" height="5" x="234.5" y="653.5" rx="2.5" transform="rotate(49, 363, 656)" opacity="0.67"></rect><rect width="144" height="5" x="48" y="229.5" rx="2.5" transform="rotate(49, 120, 232)" opacity="0.89"></rect><rect width="256" height="5" x="548" y="350.5" rx="2.5" transform="rotate(49, 676, 353)" opacity="0.35"></rect><rect width="101" height="5" x="-27.5" y="505.5" rx="2.5" transform="rotate(49, 23, 508)" opacity="0.15"></rect><rect width="147" height="5" x="433.5" y="403.5" rx="2.5" transform="rotate(49, 507, 406)" opacity="0.16"></rect><rect width="35" height="5" x="177.5" y="151.5" rx="2.5" transform="rotate(49, 195, 154)" opacity="0.89"></rect><rect width="594" height="5" x="323" y="276.5" rx="2.5" transform="rotate(49, 620, 279)" opacity="0.97"></rect><rect width="334" height="5" x="271" y="580.5" rx="2.5" transform="rotate(49, 438, 583)" opacity="0.08"></rect><rect width="279" height="5" x="138.5" y="186.5" rx="2.5" transform="rotate(49, 278, 189)" opacity="0.94"></rect><rect width="415" height="5" x="-46.5" y="93.5" rx="2.5" transform="rotate(49, 161, 96)" opacity="0.70"></rect><rect width="410" height="5" x="145" y="130.5" rx="2.5" transform="rotate(49, 350, 133)" opacity="0.89"></rect><rect width="304" height="5" x="543" y="279.5" rx="2.5" transform="rotate(49, 695, 282)" opacity="0.14"></rect><rect width="240" height="5" x="116" y="455.5" rx="2.5" transform="rotate(49, 236, 458)" opacity="0.86"></rect><rect width="44" height="5" x="290" y="460.5" rx="2.5" transform="rotate(49, 312, 463)" opacity="0.49"></rect><rect width="457" height="5" x="92.5" y="576.5" rx="2.5" transform="rotate(49, 321, 579)" opacity="0.96"></rect><rect width="478" height="5" x="35" y="334.5" rx="2.5" transform="rotate(49, 274, 337)" opacity="0.33"></rect><rect width="122" height="5" x="705" y="236.5" rx="2.5" transform="rotate(49, 766, 239)" opacity="0.42"></rect><rect width="165" height="5" x="-52.5" y="126.5" rx="2.5" transform="rotate(49, 30, 129)" opacity="0.64"></rect><rect width="479" height="5" x="436.5" y="762.5" rx="2.5" transform="rotate(49, 676, 765)" opacity="0.71"></rect><rect width="302" height="5" x="166" y="771.5" rx="2.5" transform="rotate(49, 317, 774)" opacity="0.58"></rect><rect width="121" height="5" x="721.5" y="337.5" rx="2.5" transform="rotate(49, 782, 340)" opacity="0.76"></rect><rect width="263" height="5" x="264.5" y="209.5" rx="2.5" transform="rotate(49, 396, 212)" opacity="0.47"></rect><rect width="189" height="5" x="175.5" y="112.5" rx="2.5" transform="rotate(49, 270, 115)" opacity="0.56"></rect><rect width="304" height="5" x="598" y="130.5" rx="2.5" transform="rotate(49, 750, 133)" opacity="0.65"></rect><rect width="528" height="5" x="252" y="615.5" rx="2.5" transform="rotate(49, 516, 618)" opacity="0.88"></rect><rect width="104" height="5" x="374" y="298.5" rx="2.5" transform="rotate(49, 426, 301)" opacity="0.34"></rect><rect width="386" height="5" x="-28" y="758.5" rx="2.5" transform="rotate(49, 165, 761)" opacity="0.29"></rect><rect width="398" height="5" x="218" y="404.5" rx="2.5" transform="rotate(49, 417, 407)" opacity="0.17"></rect><rect width="71" height="5" x="154.5" y="693.5" rx="2.5" transform="rotate(49, 190, 696)" opacity="0.45"></rect><rect width="354" height="5" x="450" y="467.5" rx="2.5" transform="rotate(49, 627, 470)" opacity="0.15"></rect><rect width="505" height="5" x="431.5" y="527.5" rx="2.5" transform="rotate(49, 684, 530)" opacity="0.40"></rect><rect width="161" height="5" x="82.5" y="315.5" rx="2.5" transform="rotate(49, 163, 318)" opacity="0.10"></rect><rect width="560" height="5" x="-130" y="583.5" rx="2.5" transform="rotate(49, 150, 586)" opacity="0.54"></rect><rect width="173" height="5" x="472.5" y="521.5" rx="2.5" transform="rotate(49, 559, 524)" opacity="0.07"></rect><rect width="456" height="5" x="-197" y="765.5" rx="2.5" transform="rotate(49, 31, 768)" opacity="0.38"></rect><rect width="456" height="5" x="-155" y="575.5" rx="2.5" transform="rotate(49, 73, 578)" opacity="0.65"></rect><rect width="319" height="5" x="-47.5" y="667.5" rx="2.5" transform="rotate(49, 112, 670)" opacity="0.78"></rect><rect width="630" height="5" x="285" y="735.5" rx="2.5" transform="rotate(49, 600, 738)" opacity="0.52"></rect><rect width="148" height="5" x="625" y="425.5" rx="2.5" transform="rotate(49, 699, 428)" opacity="0.43"></rect><rect width="284" height="5" x="316" y="144.5" rx="2.5" transform="rotate(49, 458, 147)" opacity="0.97"></rect><rect width="182" height="5" x="659" y="576.5" rx="2.5" transform="rotate(49, 750, 579)" opacity="0.75"></rect><rect width="393" height="5" x="267.5" y="44.5" rx="2.5" transform="rotate(49, 464, 47)" opacity="0.94"></rect><rect width="438" height="5" x="-179" y="701.5" rx="2.5" transform="rotate(49, 40, 704)" opacity="0.25"></rect><rect width="153" height="5" x="162.5" y="555.5" rx="2.5" transform="rotate(49, 239, 558)" opacity="0.35"></rect><rect width="435" height="5" x="101.5" y="250.5" rx="2.5" transform="rotate(49, 319, 253)" opacity="0.22"></rect><rect width="152" height="5" x="44" y="495.5" rx="2.5" transform="rotate(49, 120, 498)" opacity="0.61"></rect><rect width="66" height="5" x="592" y="555.5" rx="2.5" transform="rotate(49, 625, 558)" opacity="0.62"></rect><rect width="363" height="5" x="587.5" y="40.5" rx="2.5" transform="rotate(49, 769, 43)" opacity="0.65"></rect><rect width="413" height="5" x="297.5" y="492.5" rx="2.5" transform="rotate(49, 504, 495)" opacity="0.82"></rect><rect width="306" height="5" x="611" y="402.5" rx="2.5" transform="rotate(49, 764, 405)" opacity="0.52"></rect><rect width="339" height="5" x="172.5" y="725.5" rx="2.5" transform="rotate(49, 342, 728)" opacity="0.08"></rect><rect width="398" height="5" x="405" y="626.5" rx="2.5" transform="rotate(49, 604, 629)" opacity="0.97"></rect><rect width="178" height="5" x="667" y="749.5" rx="2.5" transform="rotate(49, 756, 752)" opacity="0.70"></rect><rect width="257" height="5" x="263.5" y="500.5" rx="2.5" transform="rotate(49, 392, 503)" opacity="0.68"></rect><rect width="313" height="5" x="198.5" y="40.5" rx="2.5" transform="rotate(49, 355, 43)" opacity="0.65"></rect><rect width="94" height="5" x="211" y="39.5" rx="2.5" transform="rotate(49, 258, 42)" opacity="0.45"></rect><rect width="264" height="5" x="612" y="320.5" rx="2.5" transform="rotate(49, 744, 323)" opacity="0.08"></rect><rect width="207" height="5" x="-64.5" y="251.5" rx="2.5" transform="rotate(49, 39, 254)" opacity="0.89"></rect><rect width="121" height="5" x="-30.5" y="625.5" rx="2.5" transform="rotate(49, 30, 628)" opacity="0.78"></rect><rect width="480" height="5" x="-88" y="409.5" rx="2.5" transform="rotate(49, 152, 412)" opacity="0.18"></rect><rect width="414" height="5" x="158" y="375.5" rx="2.5" transform="rotate(49, 365, 378)" opacity="0.29"></rect><rect width="111" height="5" x="105.5" y="29.5" rx="2.5" transform="rotate(49, 161, 32)" opacity="0.20"></rect><rect width="114" height="5" x="177" y="381.5" rx="2.5" transform="rotate(49, 234, 384)" opacity="0.50"></rect><rect width="393" height="5" x="-130.5" y="463.5" rx="2.5" transform="rotate(49, 66, 466)" opacity="0.83"></rect><rect width="367" height="5" x="50.5" y="641.5" rx="2.5" transform="rotate(49, 234, 644)" opacity="0.89"></rect><rect width="491" height="5" x="242.5" y="252.5" rx="2.5" transform="rotate(49, 488, 255)" opacity="0.22"></rect></g></svg>